<svg width="20" height="20" viewBox="0 0 20 20" fill="none" xmlns="http://www.w3.org/2000/svg">
<g id="Iconly/Light outline/Home">
<g id="Home">
<path id="Vector" d="M7.73031 0.788355C9.00031 -0.220645 10.7803 -0.260645 12.0893 0.668355L12.2503 0.788355L18.3393 5.65935C19.0093 6.17835 19.4203 6.94936 19.4903 7.78835L19.5003 7.98935V16.0984C19.5003 18.1884 17.8493 19.8884 15.7803 19.9984H13.7903C12.8393 19.9794 12.0703 19.2394 12.0003 18.3094L11.9903 18.1684V15.3094C11.9903 14.9984 11.7593 14.7394 11.4503 14.6884L11.3603 14.6784H8.68931C8.37031 14.6884 8.11031 14.9184 8.07031 15.2184L8.06031 15.3094V18.1594C8.06031 18.2184 8.0493 18.2884 8.04031 18.3384L8.0303 18.3594L8.01931 18.4284C7.90031 19.2794 7.2003 19.9284 6.33031 19.9894L6.2003 19.9984H4.41031C2.32031 19.9984 0.610305 18.3594 0.500305 16.2984V7.98935C0.509305 7.13835 0.880305 6.34835 1.50031 5.79835L7.73031 0.788355ZM11.3803 1.87835C10.6203 1.26835 9.54031 1.23935 8.74031 1.76835L8.58931 1.87835L2.50931 6.77936C2.16031 7.03835 1.95031 7.42836 1.90031 7.83836L1.88931 7.99835V16.0984C1.88931 17.4284 2.92931 18.5184 4.25031 18.5984H6.2003C6.4203 18.5984 6.61031 18.4494 6.63931 18.2394L6.66031 18.0594L6.67031 18.0084V15.3094C6.67031 14.2394 7.4903 13.3694 8.54031 13.2884H11.3603C12.4293 13.2884 13.2993 14.1094 13.3803 15.1594V18.1684C13.3803 18.3784 13.5303 18.5594 13.7303 18.5984H15.5893C16.9293 18.5984 18.0193 17.5694 18.0993 16.2584L18.1103 16.0984V7.99835C18.0993 7.56936 17.9203 7.16835 17.6103 6.86935L17.4803 6.75835L11.3803 1.87835Z" fill="currentColor"/>
</g>
</g>
</svg>
